<svg width="24" height="24" viewBox="0 0 24 24" fill="none" xmlns="http://www.w3.org/2000/svg">
<path d="M10.0723 11.6617C10.0723 11.6617 11.9647 11.5212 11.9647 9.3022C11.9647 7.08301 10.4165 6 8.45541 6H2.00226V18.4012H8.45541C8.45541 18.4012 12.3948 18.5256 12.3948 14.7409C12.3948 14.7409 12.5666 11.6617 10.0723 11.6617ZM7.99092 8.20417H8.45541C8.45541 8.20417 9.33258 8.20416 9.33258 9.49445C9.33258 10.7846 8.81671 10.9716 8.23158 10.9716H4.8456V8.20417H7.99092ZM8.27306 16.1971H4.8456V12.883H8.45541C8.45541 12.883 9.7628 12.8659 9.7628 14.5861C9.7628 16.0366 8.78631 16.1861 8.27306 16.1971ZM17.6487 9.15522C12.8796 9.15522 12.8839 13.9201 12.8839 13.9201C12.8839 13.9201 12.5566 18.6606 17.6487 18.6606C17.6487 18.6606 21.8921 18.903 21.8921 15.3629H19.7098C19.7098 15.3629 19.7826 16.696 17.7215 16.696C17.7215 16.696 15.5389 16.8423 15.5389 14.5385H21.9648C21.9648 14.5385 22.668 9.15522 17.6487 9.15522ZM15.5149 12.883C15.5149 12.883 15.7814 10.9716 17.6972 10.9716C19.6126 10.9716 19.5887 12.883 19.5887 12.883H15.5149ZM20.097 8.2577H14.9806V6.73059H20.097V8.2577Z" fill="white"/>
</svg>
