<svg width="24" height="24" viewBox="0 0 24 24" fill="none" xmlns="http://www.w3.org/2000/svg">
<path fill-rule="evenodd" clip-rule="evenodd" d="M3.47812 2.04004C2.66203 2.04004 2 2.68191 2 3.4727V20.6079C2 21.3987 2.66211 22.04 3.47812 22.04H20.5219C21.3383 22.04 22 21.3986 22 20.6076V3.4727C22 2.68191 21.3383 2.04004 20.5219 2.04004H3.47812ZM8.07858 9.77333V18.7774H5.08577V9.77333H8.07858ZM8.27585 6.98872C8.27585 7.85278 7.62624 8.54419 6.5828 8.54419L6.58257 8.54411H6.56319C5.55874 8.54411 4.90936 7.8527 4.90936 6.98864C4.90936 6.10497 5.57835 5.43286 6.60264 5.43286C7.62624 5.43286 8.25632 6.10497 8.27585 6.98872ZM12.7277 18.7774H9.73514L9.73507 18.7777C9.73507 18.7777 9.77436 10.6183 9.7353 9.77364H12.728V11.0481C13.1258 10.4347 13.8378 9.56224 15.4252 9.56224C17.3942 9.56224 18.8705 10.8492 18.8705 13.6147V18.7774H15.878V13.961C15.878 12.7504 15.4446 11.9248 14.3619 11.9248C13.535 11.9248 13.0426 12.4816 12.8263 13.0195C12.7473 13.2115 12.7277 13.4809 12.7277 13.7497V18.7774Z" fill="white"/>
</svg>
