<svg width="32" height="32" viewBox="0 0 32 32" fill="none" xmlns="http://www.w3.org/2000/svg">
<path fill-rule="evenodd" clip-rule="evenodd" d="M16 32C24.8366 32 32 24.8366 32 16C32 7.16344 24.8366 0 16 0C7.16344 0 0 7.16344 0 16C0 24.8366 7.16344 32 16 32ZM25.8995 14.7279C26.6805 13.9469 26.6805 12.6805 25.8995 11.8995C25.1184 11.1184 23.8521 11.1184 23.0711 11.8995L16 18.9706L8.92893 11.8995C8.14788 11.1184 6.88155 11.1184 6.10051 11.8995C5.31946 12.6805 5.31946 13.9469 6.10051 14.7279L16 24.6274L25.8995 14.7279Z" fill="#D52B1E"/>
</svg>
