<svg width="298" height="136" viewBox="0 0 298 136" fill="none" xmlns="http://www.w3.org/2000/svg">
<path d="M0 135.052H12.4976V110.322H31.8905V98.4302H12.4976V85.7633H37.2343V73.8719H0V135.052Z" fill="#4F4B4B"/>
<path d="M41.8907 135.052H53.6988V107.65C55.7673 104.204 59.9907 102.825 63.2659 102.825C64.9897 102.825 66.3688 103.169 66.8859 103.342L68.6959 92.226C67.7478 91.8813 65.8516 91.4504 63.6969 91.4504C59.215 91.4504 55.164 94.0355 53.6988 97.1376V91.9675H41.8907V135.052Z" fill="#4F4B4B"/>
<path d="M116.367 113.51C116.367 100.929 106.197 91.0196 93.6993 91.0196C81.2016 91.0196 71.0312 100.929 71.0312 113.51C71.0312 126.091 81.2016 136 93.6993 136C106.197 136 116.367 126.091 116.367 113.51ZM82.9255 113.51C82.9255 106.875 87.4936 102.049 93.6993 102.049C99.905 102.049 104.387 106.875 104.387 113.51C104.387 120.145 99.905 124.97 93.6993 124.97C87.4936 124.97 82.9255 120.145 82.9255 113.51Z" fill="#4F4B4B"/>
<path d="M181.816 133.07L178.283 123.419C176.99 124.109 174.663 124.884 172.335 124.884C168.026 124.884 165.785 122.902 165.785 117.646V102.308H178.8V91.9675H165.785V79.0421H153.977V91.9675H143.548V102.308H153.977V119.972C153.977 130.485 161.044 135.569 170.698 135.569C175.094 135.569 179.748 134.19 181.816 133.07Z" fill="#4F4B4B"/>
<path d="M261.922 135.052H273.731V110.235C273.731 99.5504 268.301 91.0196 256.148 91.0196C249.683 91.0196 244.771 93.6047 242.099 96.7068C239.168 93.1738 235.031 91.0196 229.946 91.0196C225.981 91.0196 221.671 92.743 219.431 95.3281V91.9675H207.622V135.052H219.431V106.444C220.896 103.773 223.999 101.877 227.36 101.877C232.79 101.877 234.772 106.358 234.772 112.303V135.052H246.581V110.235C246.581 109.029 246.494 108.167 246.236 106.961C247.873 103.859 250.976 101.877 254.51 101.877C259.94 101.877 261.922 106.358 261.922 112.303V135.052Z" fill="#4F4B4B"/>
<path d="M284.554 135.052H296.362V91.9675H284.554V135.052Z" fill="#4F4B4B"/>
<path d="M79.3816 83.1177C79.3816 81.2945 79.9006 79.892 80.9387 78.9102C82.0049 77.9285 83.4358 77.4376 85.2314 77.4376C87.0832 77.4376 88.5281 77.9565 89.5662 78.9944C90.6324 80.0322 91.1654 81.4067 91.1654 83.1177C91.1654 84.8007 90.6324 86.1611 89.5662 87.199C88.5 88.2088 87.0551 88.7137 85.2314 88.7137C83.4358 88.7137 82.0049 88.2228 80.9387 87.241C79.9006 86.2593 79.3816 84.8849 79.3816 83.1177ZM96.3419 83.1177C96.3419 81.1542 96.9031 79.7237 98.0253 78.8261C99.1757 77.9004 100.593 77.4376 102.276 77.4376C104.1 77.4376 105.545 77.9425 106.611 78.9523C107.705 79.9621 108.252 81.3506 108.252 83.1177C108.252 84.8288 107.705 86.1892 106.611 87.199C105.517 88.2088 104.072 88.7137 102.276 88.7137C100.593 88.7137 99.1757 88.2649 98.0253 87.3673C96.9031 86.4416 96.3419 85.0251 96.3419 83.1177Z" fill="#4F4B4B"/>
<path fill-rule="evenodd" clip-rule="evenodd" d="M136.691 135.052H124.883V92.002C126.845 93.022 129.057 93.5985 131.373 93.5985C133.256 93.5985 135.049 93.2478 136.691 92.6096V135.052Z" fill="#4F4B4B"/>
<path d="M0 66.0155H12.4976V41.2849H31.8905V29.3935H12.4976V16.7266H37.2343V4.83524H0V66.0155Z" fill="#4F4B4B"/>
<path d="M69.6599 13.8006C67.8923 12.5664 65.297 10.5748 61.8741 7.82593C58.4511 5.04899 55.7857 2.73487 53.8779 0.883573V0H68.271C70.0386 2.83304 73.3353 7.05456 78.1611 12.6645V13.8006H69.6599Z" fill="#4F4B4B"/>
<path d="M75.1575 62.8272V66.0155H86.9656V22.9308H75.1575V26.0329C72.658 23.6202 68.7794 21.9829 64.1251 21.9829C51.3689 21.9829 42.8361 32.4094 42.8361 44.4732C42.8361 56.5369 51.3689 66.9634 64.1251 66.9634C68.7794 66.9634 72.658 65.3261 75.1575 62.8272ZM55.0751 44.4732C55.0751 38.0966 59.4708 32.7541 65.849 32.7541C70.4171 32.7541 73.1751 34.736 75.1575 37.4073V51.4529C73.1751 54.2103 70.4171 56.1922 65.849 56.1922C59.4708 56.1922 55.0751 50.8497 55.0751 44.4732Z" fill="#4F4B4B"/>
<path d="M111.815 10.0916C111.815 5.95545 108.453 2.59484 104.23 2.59484C100.179 2.59484 96.7314 5.95545 96.7314 10.0916C96.7314 14.2277 100.179 17.5883 104.23 17.5883C108.453 17.5883 111.815 14.2277 111.815 10.0916ZM98.3691 66.0155H110.177V22.9308H98.3691V66.0155Z" fill="#4F4B4B"/>
<path d="M178.45 64.0336L174.916 54.3826C173.623 55.072 171.296 55.8475 168.969 55.8475C164.659 55.8475 162.418 53.8656 162.418 48.6093V33.2711H175.433V22.9308H162.418V10.0054H150.61V22.9308H140.181V33.2711H150.61V50.9359C150.61 61.4485 157.678 66.5325 167.331 66.5325C171.727 66.5325 176.381 65.1538 178.45 64.0336Z" fill="#4F4B4B"/>
<path d="M181.044 44.4732C181.044 58.0879 191.042 66.9634 203.885 66.9634C212.935 66.9634 219.916 63.0857 223.881 57.3124L215.089 50.7635C213.193 53.6933 209.315 56.1922 203.971 56.1922C198.282 56.1922 193.197 53.0039 192.507 47.2306H224.743C224.915 45.421 224.915 44.2146 224.915 43.1806C224.915 29.2212 215.003 21.9829 203.712 21.9829C190.611 21.9829 181.044 31.7201 181.044 44.4732ZM203.367 31.7201C207.763 31.7201 212.073 34.1328 213.107 39.2168H192.938C194.059 33.9605 198.972 31.7201 203.367 31.7201Z" fill="#4F4B4B"/>
<path fill-rule="evenodd" clip-rule="evenodd" d="M133.324 3.11186V57.167C132.687 57.0829 132.035 57.0395 131.373 57.0395C127.602 57.0395 124.106 58.5683 121.516 61.0513V3.11186H133.324Z" fill="#4F4B4B"/>
<path fill-rule="evenodd" clip-rule="evenodd" d="M61.8741 7.82593C65.297 10.5748 67.8923 12.5664 69.6598 13.8006H78.1611V12.6645C73.3353 7.05456 70.0386 2.83304 68.271 0H53.8779V0.883573C55.7857 2.73487 58.4511 5.04899 61.8741 7.82593ZM130.744 67.6315C134.967 67.6315 138.328 70.9921 138.328 75.1282C138.328 79.2643 134.967 82.6249 130.744 82.6249C126.693 82.6249 123.245 79.2643 123.245 75.1282C123.245 70.9921 126.693 67.6315 130.744 67.6315ZM290.415 67.6315C294.639 67.6315 298 70.9921 298 75.1282C298 79.2643 294.639 82.6249 290.415 82.6249C286.364 82.6249 282.917 79.2643 282.917 75.1282C282.917 70.9921 286.364 67.6315 290.415 67.6315ZM79.3815 83.1177C79.3815 81.2944 79.9006 79.892 80.9387 78.9102C82.0049 77.9285 83.4358 77.4376 85.2314 77.4376C87.0832 77.4376 88.5281 77.9565 89.5662 78.9944C90.6323 80.0322 91.1654 81.4066 91.1654 83.1177C91.1654 84.8007 90.6323 86.1611 89.5662 87.199C88.5 88.2088 87.0551 88.7137 85.2314 88.7137C83.4358 88.7137 82.0049 88.2228 80.9387 87.241C79.9006 86.2593 79.3815 84.8848 79.3815 83.1177ZM96.3419 83.1177C96.3419 81.1542 96.903 79.7237 98.0253 78.8261C99.1756 77.9004 100.593 77.4376 102.276 77.4376C104.1 77.4376 105.545 77.9425 106.611 78.9523C107.705 79.9621 108.252 81.3505 108.252 83.1177C108.252 84.8287 107.705 86.1892 106.611 87.199C105.516 88.2088 104.072 88.7137 102.276 88.7137C100.593 88.7137 99.1756 88.2649 98.0253 87.3673C96.903 86.4416 96.3419 85.0251 96.3419 83.1177Z" fill="#D52B1E"/>
</svg>
