<svg width="24" height="24" viewBox="0 0 24 24" fill="none" xmlns="http://www.w3.org/2000/svg">
<path d="M12 2C6.47489 2 2 6.47489 2 12C2 16.6996 5.22468 20.6 9.57532 21.6996C9.52511 21.5745 9.50043 21.3991 9.50043 21.2247V19.5243H8.25021C7.57532 19.5243 6.94979 19.2247 6.67489 18.674C6.34979 18.074 6.29957 17.1489 5.47489 16.5736C5.22468 16.3736 5.42468 16.1736 5.69957 16.1983C6.22468 16.3481 6.64936 16.6987 7.04936 17.223C7.44936 17.7481 7.62468 17.8732 8.37447 17.8732C8.72426 17.8732 9.27404 17.8485 9.77447 17.7728C10.0494 17.0723 10.5243 16.4477 11.0996 16.1481C7.74979 15.7481 6.14979 14.0979 6.14979 11.8477C6.14979 10.8723 6.57447 9.94723 7.27489 9.14723C7.05021 8.37192 6.74979 6.77191 7.37532 6.14723C8.87574 6.14723 9.77532 7.12255 10 7.37192C10.7498 7.1217 11.5753 6.97192 12.4247 6.97192C13.2996 6.97192 14.0996 7.1217 14.8494 7.37192C15.074 7.1217 15.9745 6.14723 17.474 6.14723C18.074 6.74723 17.7991 8.37192 17.5489 9.14723C18.2494 9.92255 18.6494 10.8723 18.6494 11.8477C18.6494 14.0979 17.074 15.7481 13.7498 16.0979C14.6749 16.5728 15.3251 17.9226 15.3251 18.9226V21.2C15.3251 21.2749 15.3004 21.3498 15.3004 21.4247C19.2 20.0749 22 16.3753 22 12C22 6.47489 17.5251 2 12 2Z" fill="white"/>
</svg>
