<svg width="24" height="24" viewBox="0 0 24 24" fill="none" xmlns="http://www.w3.org/2000/svg">
<path d="M6.77312 8.68894C6.78135 8.60761 6.77031 8.52549 6.74089 8.44922C6.71147 8.37296 6.6645 8.30469 6.60378 8.24997L5.3491 6.73858V6.51294H9.24452L12.2553 13.1161L14.9025 6.51294H18.6159V6.73868L17.5433 7.76709C17.4979 7.80168 17.4628 7.84799 17.4418 7.90103C17.4208 7.95408 17.4147 8.01185 17.4241 8.06812V15.6244C17.4147 15.6807 17.4208 15.7385 17.4418 15.7915C17.4628 15.8446 17.4979 15.8909 17.5433 15.9255L18.5908 16.9539V17.1796H13.3218V16.9539L14.4069 15.9003C14.5136 15.7937 14.5136 15.7624 14.5136 15.5994V9.49161L11.4964 17.1545H11.0886L7.57599 9.49161V14.6274C7.56155 14.734 7.57155 14.8424 7.60525 14.9445C7.63894 15.0467 7.69544 15.1398 7.77046 15.2168L9.18175 16.9287V17.1545H5.17987V16.9288L6.59117 15.2168C6.66558 15.1397 6.72083 15.0462 6.75243 14.9438C6.78404 14.8414 6.79113 14.733 6.77312 14.6274V8.68894Z" fill="white"/>
</svg>
