<svg width="24" height="24" viewBox="0 0 24 24" fill="none" xmlns="http://www.w3.org/2000/svg">
<path d="M15.3615 4.008V4.00439H16.2987L16.6411 4.07288C16.8694 4.11735 17.0767 4.17562 17.2629 4.24771C17.4492 4.3198 17.6294 4.40392 17.8036 4.50004C17.9779 4.59615 18.1359 4.69409 18.2777 4.79381C18.4183 4.89235 18.5444 4.99688 18.6562 5.10742C18.7667 5.21916 18.9391 5.248 19.1734 5.19393C19.4077 5.13986 19.66 5.06476 19.9304 4.96864C20.2007 4.87252 20.4681 4.76438 20.7324 4.64422C20.9968 4.52406 21.1578 4.44777 21.2155 4.41533C21.2719 4.38169 21.302 4.36367 21.3056 4.36126L21.3092 4.35585L21.3272 4.34684L21.3452 4.33783L21.3632 4.32881L21.3813 4.3198L21.3849 4.3144L21.3903 4.31079L21.3957 4.30719L21.3993 4.30178L21.4173 4.29637L21.4353 4.29277L21.4317 4.3198L21.4263 4.34684L21.4173 4.37387L21.4083 4.40091L21.3993 4.41893L21.3903 4.43695L21.3813 4.46399C21.3753 4.48201 21.3693 4.50604 21.3632 4.53608C21.3572 4.56613 21.3002 4.68627 21.192 4.89655C21.0839 5.10683 20.9487 5.32009 20.7865 5.53637C20.6243 5.75265 20.4789 5.91605 20.3504 6.02661C20.2206 6.13835 20.1347 6.21645 20.0926 6.26091C20.0506 6.30656 19.9995 6.34861 19.9394 6.38707L19.8493 6.44655L19.8313 6.45556L19.8132 6.46457L19.8097 6.46998L19.8042 6.47359L19.7988 6.47719L19.7952 6.4826L19.7772 6.49161L19.7592 6.50062L19.7556 6.50603L19.7502 6.50963L19.7448 6.51324L19.7411 6.51864L19.7376 6.52405L19.7321 6.52766L19.7267 6.53126L19.7231 6.53667H19.8132L20.3179 6.42853C20.6543 6.35643 20.9757 6.26933 21.2821 6.16719L21.7688 6.00498L21.8228 5.98696L21.8499 5.97794L21.8679 5.96893L21.8859 5.95992L21.9039 5.95091L21.922 5.9419L21.958 5.93649L21.9941 5.93289V5.96893L21.985 5.97254L21.976 5.97794L21.9724 5.98335L21.967 5.98696L21.9616 5.99056L21.958 5.99597L21.9544 6.00138L21.949 6.00498L21.9436 6.00858L21.94 6.01399L21.9364 6.0194L21.931 6.023L21.922 6.04103L21.913 6.05905L21.9075 6.06265C21.9051 6.06626 21.8289 6.16838 21.6786 6.36905C21.5285 6.57091 21.4474 6.67303 21.4353 6.67545C21.4233 6.67905 21.4065 6.69707 21.3849 6.72952C21.3644 6.76315 21.2371 6.89713 21.0028 7.13144C20.7685 7.36574 20.539 7.5742 20.3143 7.75684C20.0884 7.94068 19.9743 8.16657 19.9719 8.43452C19.9683 8.70126 19.9544 9.00287 19.9304 9.33929C19.9064 9.67573 19.8613 10.0392 19.7952 10.4297C19.7291 10.8202 19.627 11.2618 19.4888 11.7544C19.3507 12.247 19.1824 12.7277 18.9842 13.1963C18.7859 13.6649 18.5786 14.0854 18.3624 14.4579C18.1461 14.8304 17.9478 15.1458 17.7676 15.4041C17.5874 15.6625 17.4041 15.9058 17.2179 16.1341C17.0317 16.3624 16.7962 16.6195 16.5114 16.9055C16.2254 17.1902 16.0692 17.3464 16.0428 17.3741C16.0152 17.4005 15.8974 17.499 15.6895 17.6697C15.4829 17.8415 15.2606 18.0133 15.0226 18.1851C14.7859 18.3557 14.5685 18.4981 14.3702 18.6123C14.1719 18.7264 13.9329 18.8568 13.6529 19.0034C13.3741 19.1512 13.0725 19.2881 12.7481 19.4143C12.4237 19.5405 12.0812 19.6576 11.7208 19.7658C11.3603 19.8739 11.0119 19.958 10.6754 20.0181C10.339 20.0782 9.95751 20.1292 9.53095 20.1713L8.89112 20.2344V20.2434H7.71961V20.2344L7.56641 20.2254C7.46429 20.2194 7.38018 20.2133 7.31409 20.2073C7.24801 20.2013 6.99868 20.1683 6.56612 20.1082C6.13356 20.0481 5.79413 19.988 5.5478 19.928C5.3015 19.8679 4.93501 19.7537 4.44838 19.5855C3.96175 19.4173 3.54541 19.2473 3.19937 19.0755C2.85453 18.9048 2.63825 18.7967 2.55053 18.7511C2.46402 18.7066 2.36669 18.6513 2.25855 18.5852L2.09634 18.4861L2.09276 18.4807L2.08733 18.4771L2.08192 18.4735L2.07832 18.4681L2.0603 18.4591L2.04227 18.4501L2.03869 18.4447L2.03326 18.4411L2.02785 18.4374L2.02425 18.432L2.02066 18.4266L2.01524 18.423H2.00623V18.387L2.02425 18.3906L2.04227 18.396L2.12338 18.405C2.17745 18.411 2.32464 18.42 2.56495 18.432C2.80527 18.4441 3.06059 18.4441 3.33094 18.432C3.60129 18.42 3.87766 18.393 4.16001 18.3509C4.44238 18.3089 4.77581 18.2368 5.1603 18.1347C5.54481 18.0325 5.89807 17.9112 6.22009 17.7706C6.5409 17.6288 6.76919 17.5231 6.90497 17.4534C7.03954 17.3849 7.245 17.2575 7.52135 17.0713L7.93589 16.7919L7.93949 16.7865L7.9449 16.7829L7.95033 16.7793L7.95391 16.7739L7.95752 16.7685L7.96292 16.7649L7.96835 16.7613L7.97194 16.7559L7.98996 16.7505L8.00798 16.7469L8.01159 16.7288L8.01699 16.7108L8.02242 16.7072L8.02601 16.7018L7.88182 16.6928C7.7857 16.6868 7.69257 16.6808 7.60246 16.6748C7.51234 16.6688 7.37117 16.6417 7.17891 16.5937C6.98667 16.5456 6.77941 16.4735 6.55711 16.3774C6.33483 16.2813 6.11855 16.1671 5.90827 16.0349C5.69801 15.9028 5.546 15.7928 5.45228 15.7051C5.35977 15.6186 5.2396 15.496 5.09181 15.3374C4.94523 15.1776 4.81786 15.0136 4.70972 14.8454C4.60158 14.6772 4.49825 14.4831 4.39974 14.2633L4.25013 13.9352L4.24111 13.9082L4.2321 13.8812L4.2267 13.8631L4.22309 13.8451L4.25013 13.8487L4.27716 13.8541L4.47542 13.8812C4.6076 13.8992 4.81487 13.9052 5.09722 13.8992C5.37959 13.8932 5.57484 13.8812 5.68298 13.8631C5.79112 13.8451 5.85721 13.8331 5.88123 13.8271L5.91728 13.8181L5.96234 13.8091L6.0074 13.8001L6.011 13.7946L6.01641 13.791L6.02183 13.7874L6.02542 13.782L5.98937 13.773L5.95333 13.764L5.91728 13.755L5.88123 13.746L5.84519 13.737C5.82116 13.731 5.77911 13.7189 5.71902 13.7009C5.65895 13.6829 5.49674 13.6168 5.2324 13.5027C4.96807 13.3885 4.75779 13.2774 4.60158 13.1692C4.44498 13.0608 4.29567 12.9422 4.1546 12.8142C4.01402 12.6844 3.85963 12.5174 3.6914 12.3131C3.52319 12.1089 3.373 11.8716 3.24082 11.6012C3.10866 11.3309 3.00953 11.0725 2.94344 10.8262C2.87761 10.5813 2.83418 10.331 2.81369 10.0782L2.78123 9.69975L2.79925 9.70336L2.81727 9.70877L2.8353 9.71778L2.85332 9.72679L2.87134 9.7358L2.88937 9.74481L3.16873 9.87098C3.35498 9.95509 3.58627 10.0272 3.86262 10.0873C4.13899 10.1473 4.3042 10.1804 4.35827 10.1864L4.43937 10.1954H4.60158L4.59799 10.19L4.59257 10.1864L4.58716 10.1828L4.58356 10.1774L4.57997 10.172L4.57454 10.1684L4.56914 10.1648L4.56553 10.1593L4.54751 10.1503L4.52949 10.1413L4.5259 10.1359L4.52047 10.1323L4.51507 10.1287L4.51146 10.1233L4.49344 10.1143L4.47542 10.1053L4.47183 10.0999C4.46823 10.0975 4.41655 10.059 4.31681 9.98452C4.21828 9.90882 4.11495 9.8109 4.00681 9.69074C3.89867 9.57058 3.79053 9.44442 3.68239 9.31225C3.57405 9.17979 3.47756 9.03806 3.39402 8.88871C3.30992 8.73852 3.221 8.54745 3.12727 8.31557C3.03476 8.08487 2.96447 7.85237 2.9164 7.61806C2.86835 7.38376 2.84132 7.15247 2.8353 6.92417C2.8293 6.69587 2.8353 6.50062 2.85332 6.33841C2.87134 6.1762 2.90739 5.99296 2.96146 5.7887C3.01553 5.58444 3.09364 5.36816 3.19576 5.13986L3.34896 4.79742L3.35797 4.77038L3.36698 4.74335L3.37241 4.73974L3.376 4.73434L3.3796 4.72893L3.38501 4.72533L3.39043 4.72893L3.39402 4.73434L3.39762 4.73974L3.40303 4.74335L3.40846 4.74695L3.41204 4.75236L3.41565 4.75777L3.42105 4.76137L3.43007 4.7794L3.43908 4.79742L3.4445 4.80102L3.44809 4.80643L3.6914 5.07678C3.85361 5.25701 4.04587 5.45828 4.26815 5.68056C4.49045 5.90284 4.6136 6.01819 4.63763 6.02661C4.66167 6.03621 4.6917 6.06384 4.72774 6.10951C4.76379 6.15398 4.88395 6.26032 5.08821 6.42853C5.29248 6.59674 5.55982 6.792 5.89025 7.01428C6.22068 7.23657 6.58715 7.45585 6.98967 7.67213C7.3922 7.88841 7.82476 8.08366 8.28734 8.25789C8.74995 8.43212 9.07437 8.54626 9.2606 8.60033C9.44685 8.6544 9.76525 8.72349 10.2158 8.8076C10.6664 8.89172 11.0059 8.94579 11.2342 8.96981C11.4625 8.99384 11.6187 9.00766 11.7028 9.01126L11.8289 9.01487L11.8253 8.98783L11.8199 8.9608L11.7839 8.73551C11.7598 8.58532 11.7478 8.37504 11.7478 8.10469C11.7478 7.83434 11.7688 7.58503 11.8109 7.35673C11.853 7.12843 11.916 6.89713 12.0001 6.66283C12.0843 6.42853 12.1666 6.24047 12.2471 6.0987C12.3288 5.95812 12.4357 5.79771 12.5679 5.61748C12.7001 5.43725 12.8713 5.25101 13.0815 5.05876C13.2918 4.8665 13.5321 4.69528 13.8025 4.54509C14.0728 4.39491 14.3222 4.28075 14.5504 4.20265C14.7787 4.12456 14.971 4.07348 15.1272 4.04945C15.2834 4.02543 15.3615 4.0116 15.3615 4.008Z" fill="white"/>
</svg>
