<svg width="216" height="32" viewBox="0 0 216 32" fill="none" xmlns="http://www.w3.org/2000/svg">
<path d="M0 31.5288H6.46854V17.4779C7.36814 16.3213 8.95315 15.5074 10.6238 15.5074C13.1084 15.5074 14.2651 17.5636 14.2651 20.4337V31.5288H20.7336V19.3199C20.7336 13.5368 17.6064 9.63855 12.0375 9.63855C9.76707 9.63855 7.79652 10.4096 6.46854 11.6519V10.1098H0V31.5288Z" fill="#D52B1E"/>
<path d="M35.7082 32C41.8768 32 46.9746 27.1165 46.9746 20.8193C46.9746 14.5221 41.8768 9.63855 35.7082 9.63855C29.5395 9.63855 24.4418 14.5221 24.4418 20.8193C24.4418 27.1165 29.5395 32 35.7082 32ZM35.7082 25.9598C33.0094 25.9598 30.9531 23.8608 30.9531 20.8193C30.9531 17.7778 33.0094 15.6787 35.7082 15.6787C38.407 15.6787 40.4632 17.7778 40.4632 20.8193C40.4632 23.8608 38.407 25.9598 35.7082 25.9598Z" fill="#D52B1E"/>
<path d="M50.9538 31.5288H57.4224V17.992C58.4933 16.5355 60.5067 16.0643 62.006 16.0643C62.9056 16.0643 64.6191 16.2463 64.7905 16.332V10.2811C64.3621 10.1098 63.334 9.85274 62.1774 9.85274C60.0355 9.85274 58.1078 11.0094 57.4224 12.5087V10.1098H50.9538V31.5288Z" fill="#D52B1E"/>
<path d="M88.7343 31.5288H95.2028V17.4779C96.1024 16.3213 97.6874 15.5074 99.3581 15.5074C101.843 15.5074 102.999 17.5636 102.999 20.4337V31.5288H109.468V19.3199C109.468 13.5368 106.341 9.63855 100.772 9.63855C98.5013 9.63855 96.5308 10.4096 95.2028 11.6519V0.25703H88.7343V31.5288Z" fill="#D52B1E"/>
<path d="M121.872 32C126.584 32 130.226 29.0442 130.226 24.8889C130.226 21.0335 127.827 19.1486 123.928 18.1205L121.958 17.6064C120.33 17.178 120.159 16.5355 120.159 16.0643C120.159 15.2503 121.101 14.9505 121.915 14.9505C123.157 14.9505 124.314 15.4217 125.299 16.664L129.497 13.1941C127.784 10.838 125.256 9.63855 121.958 9.63855C117.288 9.63855 113.819 12.2517 113.733 16.2356C113.647 19.6627 115.746 22.2758 119.816 23.261L121.23 23.6037C123.457 24.1606 123.843 24.5462 123.843 25.2744C123.843 26.1312 122.857 26.4739 121.872 26.4739C119.902 26.4739 118.231 25.66 117.246 24.2463L112.962 28.1446C114.932 30.7577 118.145 32 121.872 32Z" fill="#D52B1E"/>
<path d="M152.334 31.5288H158.846L165.871 10.1098H158.931L155.204 23.2182L151.135 10.1098H146.166L142.096 23.2182L138.369 10.1098H131.429L138.498 31.5288H145.009L148.693 20.1767L152.334 31.5288Z" fill="#D52B1E"/>
<path d="M171.85 8.05355C174.12 8.05355 175.92 6.25435 175.92 4.02678C175.92 1.7992 174.12 0 171.85 0C169.665 0 167.823 1.7992 167.823 4.02678C167.823 6.25435 169.665 8.05355 171.85 8.05355ZM168.637 31.5288H175.106V10.1098H168.637V31.5288Z" fill="#D52B1E"/>
<path d="M187.803 32C192.515 32 196.156 29.0442 196.156 24.8889C196.156 21.0335 193.757 19.1486 189.859 18.1205L187.888 17.6064C186.26 17.178 186.089 16.5355 186.089 16.0643C186.089 15.2503 187.031 14.9505 187.845 14.9505C189.088 14.9505 190.244 15.4217 191.23 16.664L195.428 13.1941C193.714 10.838 191.187 9.63855 187.888 9.63855C183.219 9.63855 179.749 12.2517 179.663 16.2356C179.578 19.6627 181.677 22.2758 185.746 23.261L187.16 23.6037C189.388 24.1606 189.773 24.5462 189.773 25.2744C189.773 26.1312 188.788 26.4739 187.803 26.4739C185.832 26.4739 184.161 25.66 183.176 24.2463L178.892 28.1446C180.863 30.7577 184.076 32 187.803 32Z" fill="#D52B1E"/>
<path d="M207.548 32C212.26 32 215.902 29.0442 215.902 24.8889C215.902 21.0335 213.503 19.1486 209.604 18.1205L207.634 17.6064C206.006 17.178 205.835 16.5355 205.835 16.0643C205.835 15.2503 206.777 14.9505 207.591 14.9505C208.833 14.9505 209.99 15.4217 210.975 16.664L215.173 13.1941C213.46 10.838 210.932 9.63855 207.634 9.63855C202.965 9.63855 199.495 12.2517 199.409 16.2356C199.323 19.6627 201.422 22.2758 205.492 23.261L206.906 23.6037C209.133 24.1606 209.519 24.5462 209.519 25.2744C209.519 26.1312 208.533 26.4739 207.548 26.4739C205.578 26.4739 203.907 25.66 202.922 24.2463L198.638 28.1446C200.608 30.7577 203.821 32 207.548 32Z" fill="#D52B1E"/>
<path d="M79.9722 16.5874H86.3979V10.1098H79.9722V3.5984H73.5037V10.1098H67.0127V16.5874H73.5037V23.1143H79.9722V16.5874Z" fill="#D52B1E"/>
<path d="M86.3979 28.6479L86.3979 31.4003H67.0127V28.6479H86.3979Z" fill="#D52B1E"/>
</svg>
